# xmcd
#
# Track frame offsets: 
#        225
#        14825
#        28382
#        49450
#        68130
#        86475
#        107542
#        128980
#        150570
#        166230
#        182090
#        196050
#        213317
#        227310
#        247225
#        265822
#        283750
#        298310
#
# Disc length: 4307 seconds
#
# Revision: 0
# Processed by: cddbd v1.5.1PL0 Copyright (c) Steve Scherf et al.
# Submitted via: ExactAudioCopy v0.95a4
#
DISCID=0e10d012
DTITLE=Various Artist - Pra dizer que te amo
DYEAR=1900
DGENRE=Pop
TTITLE0=o meu amor - maria bethania
TTITLE1=atrás da porta - chico buarque
TTITLE2=sozinha - fafá de belem
TTITLE3=vieste - ivan lins
TTITLE4=asa morena - zizi possi
TTITLE5=de volta pro aconchego - elba ramalho
TTITLE6=bons momentos - tim maia
TTITLE7=brincar de viver - maria bethania
TTITLE8=folhetim - gal costa
TTITLE9=lua e estrela - caetano veloso
TTITLE10=retrato em branco e preto - elis e tom
TTITLE11=caçador de mim - milton nascimento
TTITLE12=faz parte do meu show - cazuza
TTITLE13=dois prá lá, dois pra cá - elis regina
TTITLE14=moça - wando
TTITLE15=meu homem - beth carvalho
TTITLE16=preciso dizer que te amo - marina
TTITLE17=sentado à beira do caminho - erasmo e roberto
EXTD=
EXTT0=
EXTT1=
EXTT2=
EXTT3=
EXTT4=
EXTT5=
EXTT6=
EXTT7=
EXTT8=
EXTT9=
EXTT10=
EXTT11=
EXTT12=
EXTT13=
EXTT14=
EXTT15=
EXTT16=
EXTT17=
PLAYORDER=
